Coordinates
version=1
nRows=19
nColumns=36
inDegrees=yes

Units are S.I. units (second, meters, Newtons, ...)
If the header above contains a line with 'inDegrees', this indicates whether rotational values are in degrees (yes) or radians (no).

endheader
time	pelvis_tilt	pelvis_list	pelvis_rotation	pelvis_tx	pelvis_ty	pelvis_tz	hip_flexion_r	hip_adduction_r	hip_rotation_r	knee_angle_r	knee_angle_r_beta	ankle_angle_r	subtalar_angle_r	mtp_angle_r	hip_flexion_l	hip_adduction_l	hip_rotation_l	knee_angle_l	knee_angle_l_beta	ankle_angle_l	subtalar_angle_l	mtp_angle_l	lumbar_extension	lumbar_bending	lumbar_rotation	arm_flex_r	arm_add_r	arm_rot_r	elbow_flex_r	pro_sup_r	arm_flex_l	arm_add_l	arm_rot_l	elbow_flex_l	pro_sup_l
      1.42916670	     -8.94292231	     -1.61670146	      1.34661604	     -0.91175663	      1.24617132	     -0.06262819	     29.98305439	     -2.33349686	     -9.75521117	     44.34878105	      0.77403225	     13.65335510	    -26.07296647	     -7.49999987	     31.05380789	     -6.72642153	      2.80359466	     45.16054797	      0.78820025	     21.80502697	      0.86768375	     -7.49999987	    -38.66105390	     -0.42237699	      0.74515345	      3.55118984	     -7.14305119	     19.70485062	     49.07258832	     88.58428766	     -5.30904078	    -11.86715315	     17.79109476	     24.53282480	     65.60918448
      1.43333330	     -8.96846791	     -1.63706488	      1.39585321	     -0.91081651	      1.24296429	     -0.06281520	     30.22560903	     -2.32693155	     -9.68018274	     44.76005097	      0.78121026	     13.98726791	    -26.16811174	     -7.49999987	     31.45330523	     -6.79862178	      2.79721285	     45.78627495	      0.79912125	     22.03060951	      1.05726690	     -7.49999987	    -39.05155768	     -0.42824011	      0.69280197	      3.56932280	     -7.18469583	     19.82145909	     49.04262403	     88.13994529	     -5.17532376	    -11.89724651	     17.57452483	     24.64107185	     65.42627800
      1.43750000	     -9.14035478	     -1.64560849	      1.44838570	     -0.91009188	      1.23973290	     -0.06293213	     30.65188533	     -2.34404668	     -9.54984434	     45.28944829	      0.79044999	     14.33578720	    -26.25617346	     -7.49999987	     31.99806057	     -6.88864798	      2.72955604	     46.48406925	      0.81130006	     22.28440204	      1.24814513	     -7.49999987	    -39.29039275	     -0.50976620	      0.64975825	      3.37143672	     -7.30161716	     20.15977442	     49.60559166	     87.41633650	     -4.99312321	    -12.05513762	     17.06044252	     25.05684498	     65.13410593
      1.44166670	     -9.21795205	     -1.61212536	      1.47466736	     -0.91046938	      1.23759862	     -0.06336770	     31.02757448	     -2.41440285	     -9.39984876	     45.79148761	      0.79921223	     14.79622194	    -26.21935779	     -7.49999987	     32.42621915	     -6.91584487	      2.70030425	     47.14075773	      0.82276143	     22.50779078	      1.32501698	     -7.49999987	    -39.57071289	     -0.56883138	      0.71033205	      3.31528228	     -7.43641309	     20.43511019	     50.07884952	     87.03680987	     -4.77459108	    -12.05732470	     16.39075757	     25.31007268	     64.89492241
      1.44583330	     -9.26244856	     -1.60751231	      1.43169090	     -0.90946862	      1.23498372	     -0.06388355	     31.37383051	     -2.47848188	     -9.29586049	     46.44764876	      0.81066440	     15.14134151	    -26.34035273	     -7.49999987	     32.84239927	     -7.00756749	      2.61699262	     47.92195644	      0.83639592	     22.77883848	      1.47727738	     -7.49999987	    -39.85262708	     -0.58770156	      0.75166837	      3.17438788	     -7.58456931	     20.61564459	     50.62879877	     87.11066639	     -4.86657923	    -11.82563419	     15.79763608	     25.39592618	     64.71174053
      1.45000000	     -9.16548048	     -1.55200219	      1.35654472	     -0.90940418	      1.23584893	     -0.06350417	     31.35559141	     -2.56435427	     -9.30294022	     46.72491817	      0.81550366	     15.35829818	    -26.37567460	     -7.49999987	     32.91984344	     -7.03823792	      2.51938853	     48.41311664	      0.84496829	     22.94232608	      1.53547433	     -7.49999987	    -40.28697138	     -0.65591350	      0.76999116	      3.10123560	     -7.75819330	     20.85755898	     51.23308102	     85.90392599	     -4.67076107	    -11.54417552	     14.83382049	     25.49969509	     64.17312408
      1.45416670	     -9.20130503	     -1.54636313	      1.31884817	     -0.91034005	      1.23242711	     -0.06353445	     31.80050172	     -2.63790907	     -9.19765553	     47.43475167	      0.82789260	     15.77308709	    -26.32399379	     -7.49999987	     33.42397244	     -7.12648870	      2.56736198	     49.18762544	      0.85848602	     23.14660620	      1.74481928	     -7.49999987	    -40.73203578	     -0.69453023	      0.82936042	      3.21456683	     -7.99513121	     21.21166627	     51.93401728	     85.72333358	     -4.26005776	    -11.42321446	     13.92199044	     25.71806616	     63.93717078
      1.45833330	     -9.00647122	     -1.54130980	      1.34415905	     -0.90880901	      1.23297134	     -0.06172328	     31.75714685	     -2.62732877	     -9.22407823	     47.86135796	      0.83533828	     15.78129949	    -26.59478061	     -7.49999987	     33.50378920	     -7.26714972	      2.49612627	     49.76182983	      0.86850777	     23.13622548	      1.92294962	     -7.49999987	    -41.32271792	     -0.76229238	      0.93515404	      3.30551727	     -8.09531206	     21.41343720	     52.41313046	     85.58592859	     -3.74970011	    -11.26320456	     13.11203487	     25.88086161	     63.70110083
      1.46250000	     -8.93457899	     -1.48177901	      1.37378352	     -0.90843860	      1.22874322	     -0.06191033	     32.09476135	     -2.71175533	     -9.11569130	     48.77688603	      0.85131726	     16.23134421	    -26.45243882	     -7.49999987	     33.83601394	     -7.37951952	      2.40111371	     50.46283600	      0.88074264	     23.58082776	      2.43449847	     -7.49999987	    -41.81398992	     -0.81019156	      0.89485676	      3.40151703	     -8.09662961	     21.48448908	     52.85678241	     85.24858171	     -3.49542827	    -11.29588562	     12.20441611	     26.49818445	     63.49552217
      1.46666670	     -9.14899133	     -1.47363100	      1.37739815	     -0.91048990	      1.22553395	     -0.06169147	     32.85261351	     -2.74311823	     -8.94599514	     49.71589103	      0.86770599	     16.70846142	    -26.22038501	     -7.49999987	     34.63572350	     -7.45569230	      2.41994541	     51.42421131	      0.89752180	     23.79961224	      2.59205039	     -7.49999987	    -42.11622195	     -0.89329035	      0.51803181	      4.09932556	     -8.08020875	     21.94190539	     52.54069654	     91.24466809	     -3.49820773	    -10.71978764	      7.96764891	     26.90517987	     64.33429994
      1.47083330	     -9.16499429	     -1.45783721	      1.40749829	     -0.91003143	      1.22593840	     -0.06080111	     33.15981391	     -2.71891684	     -8.85078177	     50.23886203	      0.87683355	     16.93467190	    -26.37147144	     -7.49999987	     35.03851147	     -7.54527261	      2.37826667	     52.10940616	      0.90948071	     24.00669343	      3.02171226	     -7.49999987	    -42.57818285	     -0.88064042	      0.58974867	      4.32333549	     -8.01158811	     21.90667268	     53.38726306	     90.22856760	     -3.14475809	    -10.78005213	      7.79494750	     27.60124862	     64.19503484
      1.47500000	     -9.19583621	     -1.38316520	      1.49002973	     -0.91152960	      1.22260092	     -0.05980790	     33.66595260	     -2.79321713	     -8.74916862	     51.05396759	      0.89105983	     17.50356241	    -26.17959404	     -7.49999987	     35.56393599	     -7.59530628	      2.34156221	     52.96784588	      0.92446331	     24.27645473	      3.30675824	     -7.49999987	    -43.04579143	     -0.94920905	      0.49383554	      4.75653096	     -7.99699106	     22.45136219	     55.13408004	     88.87242502	     -2.88196777	    -10.82685387	      7.45458068	     27.98325921	     63.99179276
      1.47916670	     -9.36502128	     -1.31567068	      1.59429007	     -0.91280631	      1.21775437	     -0.05870772	     34.45095310	     -2.83361485	     -8.55559800	     52.08040090	      0.90897447	     17.99987463	    -26.19090114	     -7.49999987	     36.38869409	     -7.66098694	      2.35704413	     53.99516694	      0.94239344	     24.47814473	      3.41153085	     -7.49999987	    -43.41279208	     -1.01493171	      0.64058873	      5.33519909	     -7.93543049	     22.13502230	     56.89848191	     96.21833592	     -2.37973135	    -10.64648772	      5.96016501	     28.12248997	     66.24318605
      1.48333330	     -9.29853895	     -1.27642490	      1.57774923	     -0.91158155	      1.21783951	     -0.06157790	     34.75897987	     -2.95273289	     -8.49232896	     52.75914520	      0.92082079	     18.08600894	    -26.27544846	     -7.49999987	     36.74012382	     -7.68853193	      2.27321011	     54.76675848	      0.95586026	     24.54233790	      3.44814925	     -7.49999987	    -43.96940091	     -0.99414946	      0.74326077	      6.21369561	     -7.66133905	     22.16924317	     57.43024415	     96.23037524	     -1.75256337	    -10.62627730	      5.88408420	     28.28337506	     66.23671923
      1.48750000	     -9.44460652	     -1.18430735	      1.52000471	     -0.90869050	      1.21336470	     -0.06084654	     35.32823914	     -3.12119027	     -8.36524347	     53.73379234	      0.93783160	     18.47565223	    -26.36409297	     -7.49999987	     37.23960245	     -7.79548542	      2.02720715	     55.68261462	      0.97184496	     25.13018095	      4.08615762	     -7.49999987	    -44.06317845	     -0.99159509	      0.77326698	      6.51615347	     -7.94434234	     22.81000030	     59.45482164	     96.34684756	     -1.51200583	    -10.51406470	      5.26962316	     28.42434611	     66.10161994
      1.49166670	     -9.42653553	     -1.14589935	      1.51084364	     -0.90980875	      1.21142452	     -0.06001418	     35.63656565	     -3.17374276	     -8.27437386	     54.39030943	      0.94928998	     18.83881148	    -26.65688842	     -7.49999987	     37.52864728	     -7.88868964	      1.90227764	     56.33058270	      0.98315414	     25.51387226	      4.33832206	     -7.49999987	    -44.47062322	     -1.03067868	      0.72936104	      7.05651336	     -7.95807243	     23.15410420	     60.35331373	     95.31433394	     -1.09341165	    -10.34534185	      4.35638654	     28.48022301	     65.64413223
      1.49583330	     -9.42743563	     -1.01475725	      1.47476648	     -0.90912794	      1.20745396	     -0.06333022	     36.07603122	     -3.42932882	     -8.05899231	     55.37470895	      0.96647099	     19.32942409	    -26.65440916	     -7.49999987	     37.89038948	     -7.81372177	      1.73849293	     57.20712910	      0.99845276	     26.09513764	      4.61148057	     -7.49999987	    -44.74250412	     -1.02528517	      0.38725136	      7.68177195	     -7.94149214	     23.47001969	     60.65457996	     96.27115899	     -0.73302326	     -9.86563743	      2.39692251	     28.52347485	     65.54271095
      1.50000000	     -9.42593072	     -0.83393517	      1.49818107	     -0.90795141	      1.20788574	     -0.06525673	     36.26036103	     -3.81785891	     -8.00040889	     55.96176717	      0.97671709	     19.64726264	    -26.66024209	     -7.49999987	     38.02325110	     -7.56211613	      1.67280429	     57.65163860	      1.00621091	     26.31358061	      4.87220421	     -7.49999987	    -45.06626373	     -1.05403739	      0.11476114	      8.05377894	     -7.92516057	     23.41713778	     60.97668971	     94.82394949	     -0.32920644	     -9.81546597	      2.32346762	     28.69529458	     65.29755407
      1.50416670	     -9.30496585	     -0.73622717	      1.42173163	     -0.90741040	      1.20676387	     -0.06413889	     36.36512718	     -4.00103830	     -7.94150751	     56.42544061	      0.98480972	     19.71463584	    -26.88105459	     -7.49999987	     38.01945371	     -7.49007602	      1.60397738	     58.08314093	      1.01374205	     26.53392712	      4.94123771	     -7.49999987	    -45.52033257	     -1.08153283	     -0.02638656	      8.49312514	     -7.91409780	     23.30673032	     60.96154077	     93.86384226	      0.26023127	     -9.68701059	      2.26204233	     28.61079916	     65.07833844
